<?xml version="1.0" encoding="UTF-8" standalone="no"?>
<svg
   xmlns:dc="http://purl.org/dc/elements/1.1/"
   xmlns:cc="http://creativecommons.org/ns#"
   xmlns:rdf="http://www.w3.org/1999/02/22-rdf-syntax-ns#"
   xmlns:svg="http://www.w3.org/2000/svg"
   xmlns="http://www.w3.org/2000/svg"
   xmlns:sodipodi="http://sodipodi.sourceforge.net/DTD/sodipodi-0.dtd"
   xmlns:inkscape="http://www.inkscape.org/namespaces/inkscape"
   width="210mm"
   height="148mm"
   viewBox="0 0 210 148"
   version="1.1"
   id="svg8"
   sodipodi:docname="2021-01-03_14-18.svg"
   inkscape:version="1.0.1 (3bc2e813f5, 2020-09-07)">
  <defs
     id="defs2" />
  <sodipodi:namedview
     id="base"
     pagecolor="#ffffff"
     bordercolor="#000000"
     borderopacity="1"
     inkscape:pageopacity="0.0"
     inkscape:pageshadow="2"
     inkscape:zoom="0.7"
     inkscape:cx="489.35776"
     inkscape:cy="500.39043"
     inkscape:document-units="mm"
     inkscape:current-layer="layer1"
     inkscape:document-rotation="0"
     showgrid="true"
     showborder="true"
     borderlayer="true"
     inkscape:showpageshadow="false"
     objecttolerance="10000"
     guidetolerance="10000"
     inkscape:snap-perpendicular="true"
     inkscape:snap-tangential="true"
     inkscape:window-width="943"
     inkscape:window-height="1027"
     inkscape:window-x="2045"
     inkscape:window-y="1121"
     inkscape:window-maximized="0">
    <sodipodi:guide
       position="0,148"
       orientation="0,793.70079"
       id="guide10" />
    <sodipodi:guide
       position="210,148"
       orientation="559.37008,0"
       id="guide12" />
    <sodipodi:guide
       position="210,0"
       orientation="0,-793.70079"
       id="guide14" />
    <sodipodi:guide
       position="0,0"
       orientation="-559.37008,0"
       id="guide16" />
    <inkscape:grid
       type="xygrid"
       id="grid20"
       dotted="true"
       units="px"
       originx="105"
       originy="74.000003" />
  </sodipodi:namedview>
  <metadata
     id="metadata5">
    <rdf:RDF>
      <cc:Work
         rdf:about="">
        <dc:format>image/svg+xml</dc:format>
        <dc:type
           rdf:resource="http://purl.org/dc/dcmitype/StillImage" />
        <dc:title />
        <cc:license
           rdf:resource="" />
      </cc:Work>
    </rdf:RDF>
  </metadata>
  <g
     inkscape:label="Layer 1"
     inkscape:groupmode="layer"
     id="layer1">
    <path
       style="fill:none;stroke:#000000;stroke-width:0.264583px;stroke-linecap:butt;stroke-linejoin:miter;stroke-opacity:1"
       d="m 89.124998,26.375003 c -0.335571,0.408244 -0.671145,0.816488 -1.006716,1.224732 0,0.333729 0.197998,0.732539 0,1.001186 -1.817267,2.465678 -2.964878,0.300561 0,3.065748"
       id="path12" />
    <path
       style="fill:none;stroke:#000000;stroke-width:0.264583px;stroke-linecap:butt;stroke-linejoin:miter;stroke-opacity:1"
       d="m 25.625,105.75 c -0.117846,3.87515 -0.144078,2.11146 0,5.29167"
       id="path14" />
    <path
       style="fill:none;stroke:#000000;stroke-width:0.264583px;stroke-linecap:butt;stroke-linejoin:miter;stroke-opacity:1"
       d="m 25.625,111.04167 c 3.185992,-4.79201 -2.410863,-1.56711 -2.74203,-2.86698 -0.04933,-0.19364 3.050341,-6.24284 3.401693,-7.04521 3.20103,-7.310022 3.510746,-9.39758 6.992191,-18.057956 5.421162,-13.485579 12.767326,-32.9117 23.584477,-43.346604 6.560481,-6.328656 8.410892,-7.524854 16.252052,-12.050991 2.732196,-1.5771 5.448962,-3.216915 8.352851,-4.449618 6.071007,-2.577145 13.31546,-4.160484 19.427016,0.593264 2.39259,1.861026 2.61013,5.647631 2.72123,8.67675 0.43236,11.789103 -2.12709,22.805168 -3.47718,34.336127 -0.887584,7.580702 -1.142897,18.683031 -1.322827,25.51104 -0.260524,9.886468 -1.2212,19.809548 2.607907,29.330348 2.79702,6.95459 12.91841,16.68856 21.39229,10.90151 6.4243,-4.38734 11.45148,-10.53682 17.0081,-15.98149 5.72591,-5.61055 27.27382,-28.20755 30.91681,-32.852924 5.41325,-6.902738 9.85617,-14.515767 14.62692,-21.877218 4.31382,-6.656398 8.64559,-13.309269 12.62372,-20.171571 1.34746,-2.32437 2.33685,-4.843865 3.32602,-7.341839 0.37569,-0.948729 1.76125,-3.141389 0.75596,-2.96641 -1.5046,0.261885 -2.38033,2.026891 -3.0993,3.374287 -3.23964,6.071351 -6.17309,12.32177 -8.69299,18.725414 -16.32303,41.480528 -4.81255,18.520592 -11.19658,31.101736"
       id="path16" />
    <path
       style="fill:none;stroke:#000000;stroke-width:0.264583px;stroke-linecap:butt;stroke-linejoin:miter;stroke-opacity:1"
       d="m 173.79166,21.083336 c -5.31345,-3.550555 -9.79839,-8.88662 -15.94037,-10.651664 -18.01085,-5.1758467 -38.46734,3.481708 -50.60839,16.611851 -7.558429,8.174185 -10.503572,18.367353 -11.338732,29.03371 -0.335965,4.290803 -0.647758,8.74319 0.453551,12.903837 1.403194,5.301121 4.316481,11.790109 8.995391,15.462372 4.78719,3.757253 9.93307,7.057075 14.58909,10.975705 7.19326,6.054043 12.37848,10.864963 6.57647,19.949083 -9.62916,15.07625 -23.18961,29.98972 -36.62401,41.233 -1.563886,1.30881 -4.327493,2.02301 -6.04725,0.92704 C 68.152806,147.5263 54.656243,127.27589 51.834507,108.7309 51.139142,104.16085 49.603924,98.89084 51.872247,94.86298 60.834021,78.949575 70.627808,62.746619 84.452115,50.811866 103.44856,34.41193 124.80067,39.09895 146.62597,37.277624 c 13.99307,-1.167722 28.13054,-1.857221 41.83982,-4.894543 5.56174,-1.232212 10.45926,-4.639169 15.23163,-7.749756 0.89457,-0.583072 2.26875,-2.832126 1.20941,-2.966366 -0.54021,-0.06846 -28.74548,3.926867 -20.53183,9.99971"
       id="path18" />
  </g>
</svg>
