<svg width="563.253" height="403.44" viewBox="0 0 422.44 302.58" class="displayed_equation" xmlns="http://www.w3.org/2000/svg">
  <path d="M121.953125 709.8625L1705.078125 2903.846875M361.679688 651.073437L1944.804688 2845.057812M601.445313 592.284375L2184.53125 2786.26875M841.171875 533.495312L2424.257813 2727.440625M1080.898438 474.70625L2663.984375 2668.690625M1320.625 415.917187L2903.710938 2609.901562M1560.351563 357.128125L3143.476563 2551.1125M1800.078125 298.339062L3383.203125 2492.323437M2039.84375 239.55L3622.929688 2433.534375M2279.570313 180.760937L3862.65625 2374.745312M2519.296875 121.971875L4102.382813 2315.95625M121.953125 709.8625L2519.296875 121.971875M280.273438 929.2375L2677.617188 341.385937M438.59375 1148.651562L2835.898438 560.760937M596.914063 1368.026562L2994.21875 780.175M755.195313 1587.440625L3152.539063 999.55M913.515625 1806.854687L3310.859375 1218.964062M1071.835938 2026.229687L3469.140625 1438.378125M1230.117188 2245.64375L3627.460938 1657.753125M1388.4375 2465.01875L3785.78125 1877.167187M1546.757813 2684.432812L3944.101563 2096.542187M1705.078125 2903.846875L4102.382813 2315.95625" transform="matrix(.1 0 0 -.1 0 302.58)" fill="none" stroke-width="3.985" stroke-linecap="round" stroke-linejoin="round" stroke="#a5a5a6" stroke-miterlimit="10" />
  <path d="M 962.109375 1794.901562 L 3262.265625 1230.878125" transform="matrix(.1 0 0 -.1 0 302.58)" fill="none" stroke-width="7.97" stroke-linecap="round" stroke-linejoin="round" stroke="#000" stroke-miterlimit="10" />
  <path d="M 92.457031 122.167969 L 97.28125 125.476563 L 96.019531 123.039063 L 98.265625 121.464844" />
  <path d="M 924.570313 1804.120312 L 972.8125 1771.034375 L 960.195313 1795.409375 L 982.65625 1811.151562 Z M 924.570313 1804.120312" transform="matrix(.1 0 0 -.1 0 302.58)" fill="none" stroke-width="7.98" stroke-linecap="round" stroke="#000" stroke-miterlimit="10" />
  <path d="M 329.980469 180.414063 L 325.15625 177.101563 L 326.417969 179.539063 L 324.171875 181.117188" />
  <path d="M 3299.804688 1221.659375 L 3251.5625 1254.784375 L 3264.179688 1230.409375 L 3241.71875 1214.628125 Z M 3299.804688 1221.659375" transform="matrix(.1 0 0 -.1 0 302.58)" fill="none" stroke-width="7.98" stroke-linecap="round" stroke="#000" stroke-miterlimit="10" />
  <path d="M 338.714844 179.953125 L 338.679688 179.953125 L 338.546875 179.386719 C 338.390625 178.785156 338.179688 178.292969 337.910156 177.980469 L 337.742188 177.980469 L 336.191406 178.160156 L 336.191406 178.492188 C 336.191406 178.492188 336.359375 178.460938 336.539063 178.460938 C 337.273438 178.449219 337.464844 178.75 337.765625 179.6875 L 338.078125 180.703125 L 337.273438 181.875 C 336.839844 182.5 336.640625 182.511719 336.59375 182.511719 C 336.40625 182.511719 336.136719 182.367188 335.890625 182.367188 C 335.621094 182.367188 335.457031 182.609375 335.457031 182.832031 C 335.457031 183.113281 335.621094 183.378906 336.101563 183.378906 C 336.773438 183.378906 337.140625 182.855469 337.496094 182.273438 L 338.214844 181.117188 L 338.257813 181.117188 L 338.535156 182.242188 C 338.691406 182.96875 338.9375 183.390625 339.449219 183.390625 C 340.210938 183.390625 340.679688 182.632813 341.003906 182.140625 L 340.765625 181.964844 C 340.464844 182.367188 340.253906 182.589844 339.964844 182.589844 C 339.617188 182.589844 339.394531 182.175781 339.082031 181.148438 L 338.847656 180.390625 L 339.527344 179.308594 C 339.71875 178.996094 339.875 178.839844 340.132813 178.839844 C 340.277344 178.839844 340.53125 178.953125 340.710938 178.953125 C 341.011719 178.953125 341.226563 178.695313 341.226563 178.425781 C 341.226563 178.113281 341.089844 177.9375 340.667969 177.9375 C 340.007813 177.9375 339.5625 178.484375 339.261719 179.019531 L 338.714844 179.953125" />
  <path d="M 1349.882813 456.464062 L 2874.453125 2569.315625" transform="matrix(.1 0 0 -.1 0 302.58)" fill="none" stroke-width="7.97" stroke-linecap="round" stroke-linejoin="round" stroke="#000" stroke-miterlimit="10" />
  <path d="M 132.726563 260.066406 L 137.605469 256.839844 L 134.871094 257.09375 L 134.253906 254.421875" />
  <path d="M 1327.265625 425.135937 L 1376.054688 457.401562 L 1348.710938 454.8625 L 1342.539063 481.58125 Z M 1327.265625 425.135937" transform="matrix(.1 0 0 -.1 0 302.58)" fill="none" stroke-width="7.976" stroke-linecap="round" stroke="#000" stroke-miterlimit="10" />
  <path d="M 289.710938 42.511719 L 284.832031 45.742188 L 287.5625 45.484375 L 288.179688 48.160156" />
  <path d="M 2897.109375 2600.682812 L 2848.320313 2568.378125 L 2875.625 2570.95625 L 2881.796875 2544.198437 Z M 2897.109375 2600.682812" transform="matrix(.1 0 0 -.1 0 302.58)" fill="none" stroke-width="7.976" stroke-linecap="round" stroke="#000" stroke-miterlimit="10" />
  <path d="M290.300781 31.554688C290.164063 30.660156 290.089844 30.304688 289.84375 29.878906L289.675781 29.878906 288.089844 30.003906 288.089844 30.328125C288.089844 30.328125 288.324219 30.304688 288.480469 30.304688 289.164063 30.304688 289.21875 30.851563 289.296875 31.351563L289.953125 35.28125C289.640625 35.761719 288.839844 36.820313 288.628906 36.820313 288.382813 36.820313 288.257813 36.226563 287.835938 36.226563 287.578125 36.226563 287.398438 36.375 287.398438 36.707031 287.398438 37.121094 287.789063 37.433594 288.257813 37.433594 289.105469 37.433594 289.886719 36.171875 290.722656 35.011719 291.304688 34.210938 291.941406 33.25 292.542969 32.1875 292.898438 31.589844 293.03125 31.085938 293.03125 30.648438 293.03125 30.171875 292.742188 29.800781 292.332031 29.800781 292.007813 29.800781 291.839844 30.003906 291.839844 30.238281 291.839844 30.660156 292.386719 30.972656 292.386719 31.265625 292.386719 31.53125 292.285156 31.800781 292.019531 32.234375L290.734375 34.300781 290.667969 34.300781 290.570313 33.183594 290.300781 31.554688M213.769531 151.289063C213.769531 149.882813 212.628906 148.738281 211.21875 148.738281 209.808594 148.738281 208.667969 149.882813 208.667969 151.289063 208.667969 152.699219 209.808594 153.839844 211.21875 153.839844 212.628906 153.839844 213.769531 152.699219 213.769531 151.289063zM213.769531 151.289063" />
  <path d="M 200.996094 158.308594 C 200.996094 156.800781 200.171875 155.414063 198.152344 155.414063 C 195.753906 155.414063 194.023438 157.445313 194.023438 160.101563 C 194.023438 161.742188 194.792969 163.015625 196.847656 163.015625 C 199.199219 163.015625 200.996094 161.148438 200.996094 158.308594 Z M 199.859375 158.261719 C 199.859375 160.738281 198.789063 162.535156 196.980469 162.535156 C 195.597656 162.535156 195.171875 161.496094 195.171875 160.167969 C 195.171875 157.804688 196.265625 155.894531 198.03125 155.894531 C 199.179688 155.894531 199.859375 156.6875 199.859375 158.261719" fill="#109e24" />
  <path d="M 237.636719 156.980469 C 237.636719 155.570313 236.496094 154.429688 235.085938 154.429688 C 233.679688 154.429688 232.535156 155.570313 232.535156 156.980469 C 232.535156 158.390625 233.679688 159.53125 235.085938 159.53125 C 236.496094 159.53125 237.636719 158.390625 237.636719 156.980469 Z M 237.636719 156.980469" />
  <path d="M 240.359375 167.019531 C 240.160156 168 240.023438 168.144531 239.121094 168.144531 L 239.054688 168.480469 L 242.101563 168.480469 L 242.167969 168.144531 C 241.464844 168.144531 241.273438 168.066406 241.273438 167.65625 C 241.273438 167.5 241.308594 167.296875 241.351563 167.0625 L 242.269531 162.621094 C 242.4375 161.753906 242.546875 161.484375 243.539063 161.484375 L 243.605469 161.148438 L 240.515625 161.148438 L 240.449219 161.484375 C 241.464844 161.484375 241.464844 161.753906 241.273438 162.621094 L 240.359375 167.019531" fill="#55a4e0" />
  <path d="M 229.542969 129.277344 C 229.542969 127.867188 228.402344 126.726563 226.992188 126.726563 C 225.582031 126.726563 224.441406 127.867188 224.441406 129.277344 C 224.441406 130.683594 225.582031 131.828125 226.992188 131.828125 C 228.402344 131.828125 229.542969 130.683594 229.542969 129.277344 Z M 229.542969 129.277344" />
  <path d="M 238.707031 123.609375 C 238.5625 124.390625 238.417969 124.734375 237.960938 124.734375 C 237.445313 124.734375 237.636719 123.695313 236.96875 123.695313 C 236.632813 123.695313 236.445313 123.898438 236.445313 124.265625 C 236.445313 124.835938 236.976563 125.113281 237.703125 125.113281 C 238.753906 125.113281 239.464844 124.757813 239.757813 123.273438 L 240.605469 119.121094 C 240.78125 118.253906 240.949219 117.984375 241.878906 117.984375 L 241.929688 117.648438 L 238.84375 117.648438 L 238.773438 117.984375 C 239.84375 117.984375 239.800781 118.265625 239.621094 119.121094 L 238.707031 123.609375" fill="#e14b3b" />
</svg>