<?xml version="1.0" encoding="UTF-8"?>
<svg xmlns="http://www.w3.org/2000/svg" xmlns:xlink="http://www.w3.org/1999/xlink" width="162.264pt" height="73.115pt" viewBox="0 0 162.264 73.115">
<defs>
<g>
<g id="glyph-0-0">
<path d="M 4.40625 -6.953125 C 4.34375 -7.09375 4.3125 -7.140625 4.140625 -7.140625 C 3.984375 -7.140625 3.953125 -7.09375 3.890625 -6.953125 L 0.515625 -0.203125 C 0.46875 -0.109375 0.46875 -0.09375 0.46875 -0.078125 C 0.46875 0 0.53125 0 0.6875 0 L 7.609375 0 C 7.765625 0 7.828125 0 7.828125 -0.078125 C 7.828125 -0.09375 7.828125 -0.109375 7.78125 -0.203125 Z M 3.828125 -6.140625 L 6.515625 -0.75 L 1.140625 -0.75 Z M 3.828125 -6.140625 "/>
</g>
<g id="glyph-0-1">
<path d="M 3.6875 -6.921875 C 3.625 -7.125 3.5625 -7.140625 3.453125 -7.140625 C 3.296875 -7.140625 3.28125 -7.09375 3.234375 -6.921875 L 1.3125 -1 C 1.21875 -0.703125 1.015625 -0.3125 0.3125 -0.3125 L 0.3125 0 C 0.640625 -0.015625 1.15625 -0.03125 1.25 -0.03125 C 1.53125 -0.03125 2.0625 -0.015625 2.375 0 L 2.375 -0.3125 C 1.828125 -0.3125 1.609375 -0.59375 1.609375 -0.828125 C 1.609375 -0.875 1.609375 -0.90625 1.65625 -1.046875 L 3.15625 -5.6875 L 4.71875 -0.78125 C 4.78125 -0.640625 4.78125 -0.625 4.78125 -0.609375 C 4.78125 -0.3125 4.1875 -0.3125 3.921875 -0.3125 L 3.921875 0 C 4.28125 -0.03125 4.984375 -0.03125 5.359375 -0.03125 C 5.75 -0.03125 6.203125 -0.015625 6.59375 0 L 6.59375 -0.3125 C 5.828125 -0.3125 5.796875 -0.375 5.6875 -0.734375 Z M 3.6875 -6.921875 "/>
</g>
<g id="glyph-1-0">
<path d="M 3.515625 -1.265625 L 3.28125 -1.265625 C 3.265625 -1.109375 3.1875 -0.703125 3.09375 -0.640625 C 3.046875 -0.59375 2.515625 -0.59375 2.40625 -0.59375 L 1.125 -0.59375 C 1.859375 -1.234375 2.109375 -1.4375 2.515625 -1.765625 C 3.03125 -2.171875 3.515625 -2.609375 3.515625 -3.265625 C 3.515625 -4.109375 2.78125 -4.625 1.890625 -4.625 C 1.03125 -4.625 0.4375 -4.015625 0.4375 -3.375 C 0.4375 -3.03125 0.734375 -2.984375 0.8125 -2.984375 C 0.96875 -2.984375 1.171875 -3.109375 1.171875 -3.359375 C 1.171875 -3.484375 1.125 -3.734375 0.765625 -3.734375 C 0.984375 -4.21875 1.453125 -4.375 1.78125 -4.375 C 2.484375 -4.375 2.84375 -3.828125 2.84375 -3.265625 C 2.84375 -2.65625 2.40625 -2.1875 2.1875 -1.9375 L 0.515625 -0.265625 C 0.4375 -0.203125 0.4375 -0.1875 0.4375 0 L 3.3125 0 Z M 3.515625 -1.265625 "/>
</g>
<g id="glyph-1-1">
<path d="M 2.328125 -4.4375 C 2.328125 -4.625 2.328125 -4.625 2.125 -4.625 C 1.671875 -4.1875 1.046875 -4.1875 0.765625 -4.1875 L 0.765625 -3.9375 C 0.921875 -3.9375 1.390625 -3.9375 1.765625 -4.125 L 1.765625 -0.578125 C 1.765625 -0.34375 1.765625 -0.25 1.078125 -0.25 L 0.8125 -0.25 L 0.8125 0 C 0.9375 0 1.796875 -0.03125 2.046875 -0.03125 C 2.265625 -0.03125 3.140625 0 3.296875 0 L 3.296875 -0.25 L 3.03125 -0.25 C 2.328125 -0.25 2.328125 -0.34375 2.328125 -0.578125 Z M 2.328125 -4.4375 "/>
</g>
</g>
</defs>
<g fill="rgb(0%, 0%, 0%)" fill-opacity="1">
<use xlink:href="#glyph-0-0" x="74.055" y="13.748"/>
</g>
<g fill="rgb(0%, 0%, 0%)" fill-opacity="1">
<use xlink:href="#glyph-1-0" x="82.357" y="10.132"/>
</g>
<g fill="rgb(0%, 0%, 0%)" fill-opacity="1">
<use xlink:href="#glyph-0-1" x="6.281" y="65.004"/>
</g>
<g fill="rgb(0%, 0%, 0%)" fill-opacity="1">
<use xlink:href="#glyph-1-0" x="13.199" y="61.389"/>
</g>
<g fill="rgb(0%, 0%, 0%)" fill-opacity="1">
<use xlink:href="#glyph-1-1" x="13.199" y="67.477"/>
</g>
<g fill="rgb(0%, 0%, 0%)" fill-opacity="1">
<use xlink:href="#glyph-0-0" x="143.212" y="65.004"/>
</g>
<g fill="rgb(0%, 0%, 0%)" fill-opacity="1">
<use xlink:href="#glyph-1-1" x="151.514" y="61.389"/>
</g>
<path fill="none" stroke-width="0.39848" stroke-linecap="butt" stroke-linejoin="miter" stroke="rgb(0%, 0%, 0%)" stroke-opacity="1" stroke-miterlimit="10" d="M -58.97575 -18.336531 L -9.467937 18.725969 " transform="matrix(1, 0, 0, -1, 81.132, 36.558)"/>
<path fill="none" stroke-width="0.39848" stroke-linecap="round" stroke-linejoin="round" stroke="rgb(0%, 0%, 0%)" stroke-opacity="1" stroke-miterlimit="10" d="M -2.073467 2.392299 C -1.694034 0.956665 -0.848867 0.280066 0.000628195 0.000357328 C -0.849141 -0.280887 -1.692303 -0.95745 -2.072268 -2.390646 " transform="matrix(0.80052, -0.59926, -0.59926, -0.80052, 71.82393, 17.7116)"/>
<path fill="none" stroke-width="0.39848" stroke-linecap="butt" stroke-linejoin="miter" stroke="rgb(0%, 0%, 0%)" stroke-opacity="1" stroke-miterlimit="10" d="M 56.438313 -17.043563 L 8.168781 18.729875 " transform="matrix(1, 0, 0, -1, 81.132, 36.558)"/>
<path fill="none" stroke-width="0.39848" stroke-linecap="round" stroke-linejoin="miter" stroke="rgb(0%, 0%, 0%)" stroke-opacity="1" stroke-miterlimit="10" d="M 0.000133824 1.951659 C 0.681418 1.950895 1.236781 1.51645 1.234472 0.975027 C 1.235301 0.43593 0.68201 0.00156343 -0.00241263 0.00000127135 " transform="matrix(0.80338, 0.5954, 0.5954, -0.80338, 137.57225, 53.603)"/>
<path fill="none" stroke-width="0.39848" stroke-linecap="round" stroke-linejoin="round" stroke="rgb(0%, 0%, 0%)" stroke-opacity="1" stroke-miterlimit="10" d="M -2.072649 2.392781 C -1.694104 0.956946 -0.851054 0.278659 0.00131598 0.00112155 C -0.850336 -0.27997 -1.694102 -0.958786 -2.07183 -2.391085 " transform="matrix(-0.80338, -0.5954, -0.5954, 0.80338, 89.14235, 17.71082)"/>
<path fill="none" stroke-width="0.39848" stroke-linecap="butt" stroke-linejoin="miter" stroke="rgb(0%, 0%, 0%)" stroke-opacity="1" stroke-dasharray="2.78941 1.59395" stroke-miterlimit="10" d="M -58.97575 -25.957625 L 57.196125 -25.957625 " transform="matrix(1, 0, 0, -1, 81.132, 36.558)"/>
<path fill="none" stroke-width="0.39848" stroke-linecap="round" stroke-linejoin="round" stroke="rgb(0%, 0%, 0%)" stroke-opacity="1" stroke-miterlimit="10" d="M -2.072355 2.38942 C -1.693449 0.955826 -0.849699 0.280045 0.00186375 -0.001205 C -0.849699 -0.278549 -1.693449 -0.958236 -2.072355 -2.39183 " transform="matrix(1, 0, 0, -1, 138.52548, 62.51442)"/>
</svg>
