<?xml version="1.0" encoding="UTF-8"?>
<svg xmlns="http://www.w3.org/2000/svg" xmlns:xlink="http://www.w3.org/1999/xlink" width="297.037pt" height="180.671pt" viewBox="0 0 297.037 180.671">
<defs>
<g>
<g id="glyph-0-0">
<path d="M 6.4375 -6.921875 C 6.4375 -6.953125 6.40625 -7.03125 6.3125 -7.03125 C 6.265625 -7.03125 6.265625 -7.015625 6.140625 -6.875 L 5.65625 -6.3125 C 5.40625 -6.78125 4.890625 -7.03125 4.234375 -7.03125 C 2.96875 -7.03125 1.78125 -5.875 1.78125 -4.671875 C 1.78125 -3.875 2.296875 -3.40625 2.8125 -3.265625 L 3.875 -2.984375 C 4.25 -2.890625 4.796875 -2.734375 4.796875 -1.921875 C 4.796875 -1.03125 3.984375 -0.09375 3 -0.09375 C 2.359375 -0.09375 1.25 -0.3125 1.25 -1.546875 C 1.25 -1.78125 1.3125 -2.03125 1.3125 -2.078125 C 1.328125 -2.125 1.328125 -2.140625 1.328125 -2.15625 C 1.328125 -2.25 1.265625 -2.265625 1.21875 -2.265625 C 1.171875 -2.265625 1.140625 -2.25 1.109375 -2.21875 C 1.078125 -2.1875 0.515625 0.09375 0.515625 0.125 C 0.515625 0.171875 0.5625 0.21875 0.625 0.21875 C 0.671875 0.21875 0.6875 0.203125 0.8125 0.0625 L 1.296875 -0.5 C 1.71875 0.078125 2.40625 0.21875 2.984375 0.21875 C 4.34375 0.21875 5.515625 -1.109375 5.515625 -2.34375 C 5.515625 -3.03125 5.171875 -3.375 5.03125 -3.515625 C 4.796875 -3.734375 4.640625 -3.78125 3.765625 -4 C 3.53125 -4.0625 3.1875 -4.171875 3.09375 -4.1875 C 2.828125 -4.28125 2.484375 -4.5625 2.484375 -5.09375 C 2.484375 -5.90625 3.28125 -6.75 4.234375 -6.75 C 5.046875 -6.75 5.65625 -6.3125 5.65625 -5.203125 C 5.65625 -4.890625 5.625 -4.703125 5.625 -4.640625 C 5.625 -4.640625 5.625 -4.546875 5.734375 -4.546875 C 5.84375 -4.546875 5.859375 -4.578125 5.890625 -4.75 Z M 6.4375 -6.921875 "/>
</g>
<g id="glyph-0-1">
<path d="M 4.25 -6.046875 C 4.328125 -6.328125 4.359375 -6.390625 4.484375 -6.421875 C 4.578125 -6.4375 4.90625 -6.4375 5.109375 -6.4375 C 6.125 -6.4375 6.5625 -6.40625 6.5625 -5.625 C 6.5625 -5.46875 6.53125 -5.078125 6.484375 -4.828125 C 6.484375 -4.78125 6.453125 -4.671875 6.453125 -4.640625 C 6.453125 -4.578125 6.484375 -4.5 6.578125 -4.5 C 6.6875 -4.5 6.703125 -4.578125 6.734375 -4.734375 L 7 -6.46875 C 7.015625 -6.515625 7.015625 -6.609375 7.015625 -6.640625 C 7.015625 -6.75 6.921875 -6.75 6.75 -6.75 L 1.21875 -6.75 C 0.984375 -6.75 0.96875 -6.734375 0.890625 -6.546875 L 0.296875 -4.796875 C 0.296875 -4.78125 0.234375 -4.640625 0.234375 -4.609375 C 0.234375 -4.5625 0.296875 -4.5 0.359375 -4.5 C 0.453125 -4.5 0.46875 -4.5625 0.53125 -4.71875 C 1.0625 -6.265625 1.328125 -6.4375 2.796875 -6.4375 L 3.1875 -6.4375 C 3.46875 -6.4375 3.46875 -6.40625 3.46875 -6.3125 C 3.46875 -6.265625 3.4375 -6.140625 3.421875 -6.109375 L 2.09375 -0.78125 C 2 -0.421875 1.96875 -0.3125 0.90625 -0.3125 C 0.546875 -0.3125 0.484375 -0.3125 0.484375 -0.125 C 0.484375 0 0.59375 0 0.65625 0 C 0.921875 0 1.203125 -0.015625 1.46875 -0.015625 C 1.75 -0.015625 2.046875 -0.03125 2.328125 -0.03125 C 2.609375 -0.03125 2.875 -0.015625 3.15625 -0.015625 C 3.4375 -0.015625 3.734375 0 4.015625 0 C 4.109375 0 4.234375 0 4.234375 -0.203125 C 4.234375 -0.3125 4.15625 -0.3125 3.890625 -0.3125 C 3.65625 -0.3125 3.515625 -0.3125 3.265625 -0.328125 C 2.96875 -0.359375 2.890625 -0.390625 2.890625 -0.546875 C 2.890625 -0.5625 2.890625 -0.609375 2.9375 -0.75 Z M 4.25 -6.046875 "/>
</g>
<g id="glyph-1-0">
<path d="M 5.515625 -1.609375 C 5.5625 -1.703125 5.5625 -1.734375 5.5625 -1.734375 C 5.5625 -1.78125 5.53125 -1.828125 5.4375 -1.828125 C 5.421875 -1.828125 5.390625 -1.828125 5.359375 -1.8125 C 5.359375 -1.796875 5.34375 -1.78125 5.265625 -1.609375 C 4.8125 -0.59375 4.453125 -0.25 3.3125 -0.25 L 2.125 -0.25 C 1.921875 -0.25 1.90625 -0.265625 1.90625 -0.328125 C 1.90625 -0.328125 1.90625 -0.359375 1.9375 -0.46875 L 2.40625 -2.328125 L 3.1875 -2.328125 C 3.734375 -2.328125 3.8125 -2.25 3.8125 -2.015625 C 3.8125 -1.9375 3.796875 -1.8125 3.765625 -1.703125 C 3.75 -1.640625 3.75 -1.625 3.75 -1.609375 C 3.75 -1.609375 3.75 -1.515625 3.875 -1.515625 C 3.96875 -1.515625 3.96875 -1.546875 4 -1.671875 L 4.390625 -3.203125 C 4.40625 -3.28125 4.40625 -3.296875 4.40625 -3.296875 C 4.40625 -3.375 4.34375 -3.40625 4.28125 -3.40625 C 4.1875 -3.40625 4.1875 -3.359375 4.140625 -3.21875 C 4 -2.671875 3.796875 -2.578125 3.203125 -2.578125 L 2.46875 -2.578125 L 2.890625 -4.25 C 2.9375 -4.453125 2.953125 -4.484375 3.234375 -4.484375 L 4.375 -4.484375 C 5.296875 -4.484375 5.515625 -4.296875 5.515625 -3.671875 C 5.515625 -3.484375 5.484375 -3.28125 5.484375 -3.25 C 5.484375 -3.1875 5.515625 -3.125 5.609375 -3.125 C 5.71875 -3.125 5.71875 -3.1875 5.734375 -3.3125 L 5.859375 -4.515625 C 5.875 -4.734375 5.828125 -4.734375 5.65625 -4.734375 L 1.828125 -4.734375 C 1.6875 -4.734375 1.609375 -4.734375 1.609375 -4.578125 C 1.609375 -4.484375 1.671875 -4.484375 1.828125 -4.484375 C 1.9375 -4.484375 1.96875 -4.484375 2.09375 -4.46875 C 2.234375 -4.453125 2.25 -4.4375 2.25 -4.375 C 2.25 -4.328125 2.234375 -4.25 2.21875 -4.21875 L 1.3125 -0.578125 C 1.234375 -0.296875 1.234375 -0.25 0.6875 -0.25 C 0.5625 -0.25 0.484375 -0.25 0.484375 -0.09375 C 0.484375 0 0.5625 0 0.6875 0 L 4.625 0 C 4.796875 0 4.8125 0 4.859375 -0.125 Z M 5.515625 -1.609375 "/>
</g>
<g id="glyph-1-1">
<path d="M 0.84375 -0.4375 C 0.828125 -0.34375 0.78125 -0.171875 0.78125 -0.15625 C 0.78125 0 0.90625 0.0625 1.015625 0.0625 C 1.140625 0.0625 1.25 -0.015625 1.296875 -0.078125 C 1.328125 -0.140625 1.375 -0.375 1.421875 -0.515625 C 1.453125 -0.640625 1.53125 -0.96875 1.5625 -1.140625 C 1.609375 -1.296875 1.65625 -1.453125 1.6875 -1.609375 C 1.765625 -1.890625 1.78125 -1.953125 1.984375 -2.234375 C 2.171875 -2.515625 2.5 -2.875 3.03125 -2.875 C 3.421875 -2.875 3.4375 -2.515625 3.4375 -2.390625 C 3.4375 -1.96875 3.140625 -1.203125 3.03125 -0.90625 C 2.953125 -0.703125 2.921875 -0.640625 2.921875 -0.53125 C 2.921875 -0.15625 3.21875 0.0625 3.578125 0.0625 C 4.28125 0.0625 4.578125 -0.890625 4.578125 -1 C 4.578125 -1.09375 4.5 -1.09375 4.46875 -1.09375 C 4.375 -1.09375 4.375 -1.046875 4.34375 -0.96875 C 4.1875 -0.40625 3.875 -0.125 3.609375 -0.125 C 3.453125 -0.125 3.421875 -0.21875 3.421875 -0.375 C 3.421875 -0.53125 3.46875 -0.625 3.59375 -0.9375 C 3.671875 -1.15625 3.953125 -1.890625 3.953125 -2.28125 C 3.953125 -2.953125 3.421875 -3.078125 3.046875 -3.078125 C 2.46875 -3.078125 2.078125 -2.71875 1.875 -2.4375 C 1.828125 -2.921875 1.421875 -3.078125 1.125 -3.078125 C 0.828125 -3.078125 0.671875 -2.859375 0.578125 -2.703125 C 0.421875 -2.4375 0.328125 -2.046875 0.328125 -2 C 0.328125 -1.921875 0.421875 -1.921875 0.453125 -1.921875 C 0.546875 -1.921875 0.546875 -1.9375 0.59375 -2.125 C 0.703125 -2.53125 0.84375 -2.875 1.109375 -2.875 C 1.296875 -2.875 1.34375 -2.71875 1.34375 -2.53125 C 1.34375 -2.40625 1.28125 -2.140625 1.21875 -1.953125 C 1.171875 -1.765625 1.109375 -1.484375 1.078125 -1.328125 Z M 0.84375 -0.4375 "/>
</g>
<g id="glyph-1-2">
<path d="M 1.46875 -0.109375 C 1.46875 0.265625 1.40625 0.71875 0.921875 1.15625 C 0.90625 1.1875 0.875 1.21875 0.875 1.25 C 0.875 1.296875 0.9375 1.34375 0.96875 1.34375 C 1.078125 1.34375 1.671875 0.78125 1.671875 -0.046875 C 1.671875 -0.46875 1.5 -0.796875 1.171875 -0.796875 C 0.953125 -0.796875 0.78125 -0.625 0.78125 -0.40625 C 0.78125 -0.1875 0.9375 0 1.1875 0 C 1.359375 0 1.46875 -0.109375 1.46875 -0.109375 Z M 1.46875 -0.109375 "/>
</g>
<g id="glyph-2-0">
<path d="M 4.421875 -2.5 C 4.421875 -3.5625 3.53125 -4.421875 2.5 -4.421875 C 1.421875 -4.421875 0.546875 -3.53125 0.546875 -2.5 C 0.546875 -1.4375 1.421875 -0.5625 2.5 -0.5625 C 3.53125 -0.5625 4.421875 -1.421875 4.421875 -2.5 Z M 2.5 -0.953125 C 1.625 -0.953125 0.953125 -1.65625 0.953125 -2.5 C 0.953125 -3.328125 1.640625 -4.03125 2.5 -4.03125 C 3.3125 -4.03125 4.03125 -3.34375 4.03125 -2.5 C 4.03125 -1.640625 3.3125 -0.953125 2.5 -0.953125 Z M 2.5 -0.953125 "/>
</g>
<g id="glyph-3-0">
<path d="M 2.46875 -5.21875 C 1.15625 -4.296875 0.796875 -2.8125 0.796875 -1.75 C 0.796875 -0.765625 1.09375 0.765625 2.46875 1.734375 C 2.53125 1.734375 2.609375 1.734375 2.609375 1.65625 C 2.609375 1.609375 2.59375 1.59375 2.546875 1.546875 C 1.609375 0.703125 1.28125 -0.46875 1.28125 -1.734375 C 1.28125 -3.625 2 -4.546875 2.5625 -5.0625 C 2.59375 -5.09375 2.609375 -5.109375 2.609375 -5.140625 C 2.609375 -5.21875 2.53125 -5.21875 2.46875 -5.21875 Z M 2.46875 -5.21875 "/>
</g>
<g id="glyph-3-1">
<path d="M 2.328125 -4.4375 C 2.328125 -4.625 2.328125 -4.625 2.125 -4.625 C 1.671875 -4.1875 1.046875 -4.1875 0.765625 -4.1875 L 0.765625 -3.9375 C 0.921875 -3.9375 1.390625 -3.9375 1.765625 -4.125 L 1.765625 -0.578125 C 1.765625 -0.34375 1.765625 -0.25 1.078125 -0.25 L 0.8125 -0.25 L 0.8125 0 C 0.9375 0 1.796875 -0.03125 2.046875 -0.03125 C 2.265625 -0.03125 3.140625 0 3.296875 0 L 3.296875 -0.25 L 3.03125 -0.25 C 2.328125 -0.25 2.328125 -0.34375 2.328125 -0.578125 Z M 2.328125 -4.4375 "/>
</g>
<g id="glyph-3-2">
<path d="M 3.59375 -2.21875 C 3.59375 -2.984375 3.5 -3.546875 3.1875 -4.03125 C 2.96875 -4.34375 2.53125 -4.625 1.984375 -4.625 C 0.359375 -4.625 0.359375 -2.71875 0.359375 -2.21875 C 0.359375 -1.71875 0.359375 0.140625 1.984375 0.140625 C 3.59375 0.140625 3.59375 -1.71875 3.59375 -2.21875 Z M 1.984375 -0.0625 C 1.65625 -0.0625 1.234375 -0.25 1.09375 -0.8125 C 1 -1.21875 1 -1.796875 1 -2.3125 C 1 -2.828125 1 -3.359375 1.09375 -3.734375 C 1.25 -4.28125 1.6875 -4.4375 1.984375 -4.4375 C 2.359375 -4.4375 2.71875 -4.203125 2.84375 -3.796875 C 2.953125 -3.421875 2.96875 -2.921875 2.96875 -2.3125 C 2.96875 -1.796875 2.96875 -1.28125 2.875 -0.84375 C 2.734375 -0.203125 2.265625 -0.0625 1.984375 -0.0625 Z M 1.984375 -0.0625 "/>
</g>
<g id="glyph-3-3">
<path d="M 0.625 -5.21875 C 0.578125 -5.21875 0.5 -5.21875 0.5 -5.140625 C 0.5 -5.109375 0.515625 -5.09375 0.5625 -5.03125 C 1.15625 -4.484375 1.828125 -3.546875 1.828125 -1.75 C 1.828125 -0.296875 1.375 0.8125 0.625 1.484375 C 0.5 1.609375 0.5 1.609375 0.5 1.65625 C 0.5 1.6875 0.515625 1.734375 0.578125 1.734375 C 0.671875 1.734375 1.328125 1.28125 1.796875 0.40625 C 2.09375 -0.171875 2.296875 -0.921875 2.296875 -1.734375 C 2.296875 -2.71875 2 -4.25 0.625 -5.21875 Z M 0.625 -5.21875 "/>
</g>
<g id="glyph-3-4">
<path d="M 3.515625 -1.265625 L 3.28125 -1.265625 C 3.265625 -1.109375 3.1875 -0.703125 3.09375 -0.640625 C 3.046875 -0.59375 2.515625 -0.59375 2.40625 -0.59375 L 1.125 -0.59375 C 1.859375 -1.234375 2.109375 -1.4375 2.515625 -1.765625 C 3.03125 -2.171875 3.515625 -2.609375 3.515625 -3.265625 C 3.515625 -4.109375 2.78125 -4.625 1.890625 -4.625 C 1.03125 -4.625 0.4375 -4.015625 0.4375 -3.375 C 0.4375 -3.03125 0.734375 -2.984375 0.8125 -2.984375 C 0.96875 -2.984375 1.171875 -3.109375 1.171875 -3.359375 C 1.171875 -3.484375 1.125 -3.734375 0.765625 -3.734375 C 0.984375 -4.21875 1.453125 -4.375 1.78125 -4.375 C 2.484375 -4.375 2.84375 -3.828125 2.84375 -3.265625 C 2.84375 -2.65625 2.40625 -2.1875 2.1875 -1.9375 L 0.515625 -0.265625 C 0.4375 -0.203125 0.4375 -0.1875 0.4375 0 L 3.3125 0 Z M 3.515625 -1.265625 "/>
</g>
<g id="glyph-3-5">
<path d="M 2.46875 -2.515625 C 3.015625 -2.78125 3.359375 -3.109375 3.359375 -3.59375 C 3.359375 -4.265625 2.65625 -4.625 1.984375 -4.625 C 1.21875 -4.625 0.59375 -4.125 0.59375 -3.46875 C 0.59375 -3.140625 0.75 -2.90625 0.875 -2.765625 C 1 -2.609375 1.046875 -2.578125 1.453125 -2.34375 C 1.0625 -2.171875 0.375 -1.796875 0.375 -1.0625 C 0.375 -0.296875 1.171875 0.140625 1.96875 0.140625 C 2.859375 0.140625 3.578125 -0.421875 3.578125 -1.171875 C 3.578125 -1.640625 3.3125 -2.03125 2.90625 -2.265625 C 2.8125 -2.328125 2.578125 -2.453125 2.46875 -2.515625 Z M 1.34375 -3.171875 C 1.15625 -3.28125 0.96875 -3.46875 0.96875 -3.734375 C 0.96875 -4.171875 1.46875 -4.421875 1.96875 -4.421875 C 2.515625 -4.421875 3 -4.078125 3 -3.59375 C 3 -2.96875 2.265625 -2.65625 2.265625 -2.65625 C 2.25 -2.65625 2.234375 -2.65625 2.1875 -2.6875 Z M 1.671875 -2.203125 L 2.640625 -1.65625 C 2.8125 -1.546875 3.15625 -1.34375 3.15625 -0.9375 C 3.15625 -0.40625 2.578125 -0.078125 1.984375 -0.078125 C 1.34375 -0.078125 0.796875 -0.5 0.796875 -1.0625 C 0.796875 -1.578125 1.171875 -1.984375 1.671875 -2.203125 Z M 1.671875 -2.203125 "/>
</g>
<g id="glyph-3-6">
<path d="M 1.046875 -2.28125 C 1.046875 -2.84375 1.09375 -3.359375 1.359375 -3.796875 C 1.59375 -4.171875 1.96875 -4.421875 2.421875 -4.421875 C 2.625 -4.421875 2.90625 -4.375 3.046875 -4.1875 C 2.875 -4.171875 2.71875 -4.046875 2.71875 -3.84375 C 2.71875 -3.671875 2.84375 -3.515625 3.046875 -3.515625 C 3.265625 -3.515625 3.390625 -3.65625 3.390625 -3.859375 C 3.390625 -4.265625 3.09375 -4.625 2.40625 -4.625 C 1.40625 -4.625 0.375 -3.703125 0.375 -2.203125 C 0.375 -0.40625 1.21875 0.140625 2 0.140625 C 2.84375 0.140625 3.578125 -0.515625 3.578125 -1.421875 C 3.578125 -2.3125 2.875 -2.96875 2.0625 -2.96875 C 1.5 -2.96875 1.203125 -2.59375 1.046875 -2.28125 Z M 2 -0.078125 C 1.640625 -0.078125 1.375 -0.28125 1.21875 -0.59375 C 1.125 -0.796875 1.0625 -1.15625 1.0625 -1.5625 C 1.0625 -2.25 1.46875 -2.765625 2.03125 -2.765625 C 2.34375 -2.765625 2.5625 -2.640625 2.734375 -2.390625 C 2.90625 -2.125 2.90625 -1.828125 2.90625 -1.421875 C 2.90625 -1.03125 2.90625 -0.734375 2.71875 -0.453125 C 2.5625 -0.21875 2.328125 -0.078125 2 -0.078125 Z M 2 -0.078125 "/>
</g>
</g>
<clipPath id="clip-0">
<path clip-rule="nonzero" d="M 183 21 L 297.035156 21 L 297.035156 111 L 183 111 Z M 183 21 "/>
</clipPath>
</defs>
<g fill="rgb(0%, 0%, 0%)" fill-opacity="1">
<use xlink:href="#glyph-0-0" x="12.806" y="16.431"/>
</g>
<g fill="rgb(0%, 0%, 0%)" fill-opacity="1">
<use xlink:href="#glyph-1-0" x="18.915" y="17.925"/>
</g>
<g fill="rgb(0%, 0%, 0%)" fill-opacity="1">
<use xlink:href="#glyph-1-1" x="25.147485" y="17.925"/>
</g>
<g fill="rgb(0%, 0%, 0%)" fill-opacity="1">
<use xlink:href="#glyph-0-1" x="100.151" y="16.431"/>
</g>
<g fill="rgb(0%, 0%, 0%)" fill-opacity="1">
<use xlink:href="#glyph-1-0" x="105.973" y="17.925"/>
</g>
<g fill="rgb(0%, 0%, 0%)" fill-opacity="1">
<use xlink:href="#glyph-1-1" x="112.205485" y="17.925"/>
</g>
<path fill="none" stroke-width="0.398" stroke-linecap="butt" stroke-linejoin="miter" stroke="rgb(0%, 0%, 0%)" stroke-opacity="1" stroke-miterlimit="10" d="M 0.00015625 0.0014375 L 7.207188 0.0014375 " transform="matrix(1, 0, 0, -1, 186.66, 8.228)"/>
<g fill="rgb(0%, 0%, 0%)" fill-opacity="1">
<use xlink:href="#glyph-0-1" x="186.66" y="16.431"/>
</g>
<g fill="rgb(0%, 0%, 0%)" fill-opacity="1">
<use xlink:href="#glyph-1-0" x="193.865" y="17.925"/>
</g>
<g fill="rgb(0%, 0%, 0%)" fill-opacity="1">
<use xlink:href="#glyph-1-1" x="200.097485" y="17.925"/>
</g>
<path fill="none" stroke-width="0.398" stroke-linecap="butt" stroke-linejoin="miter" stroke="rgb(0%, 0%, 0%)" stroke-opacity="1" stroke-miterlimit="10" d="M 0.001625 0.001625 L 7.20475 0.001625 " transform="matrix(1, 0, 0, -1, 269.889, 6.236)"/>
<path fill="none" stroke-width="0.398" stroke-linecap="butt" stroke-linejoin="miter" stroke="rgb(0%, 0%, 0%)" stroke-opacity="1" stroke-miterlimit="10" d="M 0.001625 0.0014375 L 7.20475 0.0014375 " transform="matrix(1, 0, 0, -1, 269.889, 8.228)"/>
<g fill="rgb(0%, 0%, 0%)" fill-opacity="1">
<use xlink:href="#glyph-0-1" x="269.889" y="16.431"/>
</g>
<g fill="rgb(0%, 0%, 0%)" fill-opacity="1">
<use xlink:href="#glyph-1-0" x="277.095" y="17.925"/>
</g>
<g fill="rgb(0%, 0%, 0%)" fill-opacity="1">
<use xlink:href="#glyph-1-1" x="283.327485" y="17.925"/>
</g>
<g fill="rgb(0%, 0%, 0%)" fill-opacity="1">
<use xlink:href="#glyph-2-0" x="193.599" y="47.571"/>
</g>
<g fill="rgb(0%, 0%, 0%)" fill-opacity="1">
<use xlink:href="#glyph-3-0" x="180.683" y="54.462"/>
<use xlink:href="#glyph-3-1" x="183.796104" y="54.462"/>
<use xlink:href="#glyph-3-2" x="187.767683" y="54.462"/>
</g>
<g fill="rgb(0%, 0%, 0%)" fill-opacity="1">
<use xlink:href="#glyph-1-2" x="191.739263" y="54.462"/>
</g>
<g fill="rgb(0%, 0%, 0%)" fill-opacity="1">
<use xlink:href="#glyph-3-1" x="194.105473" y="54.462"/>
<use xlink:href="#glyph-3-2" x="198.077052" y="54.462"/>
</g>
<g fill="rgb(0%, 0%, 0%)" fill-opacity="1">
<use xlink:href="#glyph-1-2" x="202.048631" y="54.462"/>
</g>
<g fill="rgb(0%, 0%, 0%)" fill-opacity="1">
<use xlink:href="#glyph-3-2" x="204.414841" y="54.462"/>
<use xlink:href="#glyph-3-3" x="208.386421" y="54.462"/>
</g>
<g fill="rgb(0%, 0%, 0%)" fill-opacity="1">
<use xlink:href="#glyph-2-0" x="19.198" y="86.849"/>
</g>
<g fill="rgb(0%, 0%, 0%)" fill-opacity="1">
<use xlink:href="#glyph-3-0" x="6.281" y="93.739"/>
<use xlink:href="#glyph-3-1" x="9.394104" y="93.739"/>
<use xlink:href="#glyph-3-2" x="13.365683" y="93.739"/>
</g>
<g fill="rgb(0%, 0%, 0%)" fill-opacity="1">
<use xlink:href="#glyph-1-2" x="17.337263" y="93.739"/>
</g>
<g fill="rgb(0%, 0%, 0%)" fill-opacity="1">
<use xlink:href="#glyph-3-1" x="19.703473" y="93.739"/>
<use xlink:href="#glyph-3-2" x="23.675052" y="93.739"/>
</g>
<g fill="rgb(0%, 0%, 0%)" fill-opacity="1">
<use xlink:href="#glyph-1-2" x="27.646631" y="93.739"/>
</g>
<g fill="rgb(0%, 0%, 0%)" fill-opacity="1">
<use xlink:href="#glyph-3-2" x="30.012841" y="93.739"/>
<use xlink:href="#glyph-3-3" x="33.98442" y="93.739"/>
</g>
<g fill="rgb(0%, 0%, 0%)" fill-opacity="1">
<use xlink:href="#glyph-2-0" x="106.399" y="86.849"/>
</g>
<g fill="rgb(0%, 0%, 0%)" fill-opacity="1">
<use xlink:href="#glyph-3-0" x="93.482" y="93.739"/>
<use xlink:href="#glyph-3-1" x="96.595104" y="93.739"/>
<use xlink:href="#glyph-3-4" x="100.566683" y="93.739"/>
</g>
<g fill="rgb(0%, 0%, 0%)" fill-opacity="1">
<use xlink:href="#glyph-1-2" x="104.538263" y="93.739"/>
</g>
<g fill="rgb(0%, 0%, 0%)" fill-opacity="1">
<use xlink:href="#glyph-3-1" x="106.904473" y="93.739"/>
<use xlink:href="#glyph-3-2" x="110.876052" y="93.739"/>
</g>
<g fill="rgb(0%, 0%, 0%)" fill-opacity="1">
<use xlink:href="#glyph-1-2" x="114.847631" y="93.739"/>
</g>
<g fill="rgb(0%, 0%, 0%)" fill-opacity="1">
<use xlink:href="#glyph-3-2" x="117.213841" y="93.739"/>
<use xlink:href="#glyph-3-3" x="121.18542" y="93.739"/>
</g>
<g fill="rgb(0%, 0%, 0%)" fill-opacity="1">
<use xlink:href="#glyph-2-0" x="276.829" y="86.849"/>
</g>
<g fill="rgb(0%, 0%, 0%)" fill-opacity="1">
<use xlink:href="#glyph-3-0" x="267.883" y="93.739"/>
<use xlink:href="#glyph-3-5" x="270.996104" y="93.739"/>
</g>
<g fill="rgb(0%, 0%, 0%)" fill-opacity="1">
<use xlink:href="#glyph-1-2" x="274.967683" y="93.739"/>
</g>
<g fill="rgb(0%, 0%, 0%)" fill-opacity="1">
<use xlink:href="#glyph-3-5" x="277.333894" y="93.739"/>
</g>
<g fill="rgb(0%, 0%, 0%)" fill-opacity="1">
<use xlink:href="#glyph-1-2" x="281.305473" y="93.739"/>
</g>
<g fill="rgb(0%, 0%, 0%)" fill-opacity="1">
<use xlink:href="#glyph-3-2" x="283.671683" y="93.739"/>
<use xlink:href="#glyph-3-3" x="287.643262" y="93.739"/>
</g>
<g fill="rgb(0%, 0%, 0%)" fill-opacity="1">
<use xlink:href="#glyph-2-0" x="193.599" y="126.126"/>
</g>
<g fill="rgb(0%, 0%, 0%)" fill-opacity="1">
<use xlink:href="#glyph-3-0" x="182.668" y="133.016"/>
<use xlink:href="#glyph-3-1" x="185.781104" y="133.016"/>
<use xlink:href="#glyph-3-2" x="189.752683" y="133.016"/>
</g>
<g fill="rgb(0%, 0%, 0%)" fill-opacity="1">
<use xlink:href="#glyph-1-2" x="193.724263" y="133.016"/>
</g>
<g fill="rgb(0%, 0%, 0%)" fill-opacity="1">
<use xlink:href="#glyph-3-5" x="196.090473" y="133.016"/>
</g>
<g fill="rgb(0%, 0%, 0%)" fill-opacity="1">
<use xlink:href="#glyph-1-2" x="200.062052" y="133.016"/>
</g>
<g fill="rgb(0%, 0%, 0%)" fill-opacity="1">
<use xlink:href="#glyph-3-2" x="202.428262" y="133.016"/>
<use xlink:href="#glyph-3-3" x="206.399841" y="133.016"/>
</g>
<g fill="rgb(0%, 0%, 0%)" fill-opacity="1">
<use xlink:href="#glyph-2-0" x="19.198" y="165.403"/>
</g>
<g fill="rgb(0%, 0%, 0%)" fill-opacity="1">
<use xlink:href="#glyph-3-0" x="6.281" y="172.294"/>
<use xlink:href="#glyph-3-1" x="9.394104" y="172.294"/>
<use xlink:href="#glyph-3-2" x="13.365683" y="172.294"/>
</g>
<g fill="rgb(0%, 0%, 0%)" fill-opacity="1">
<use xlink:href="#glyph-1-2" x="17.337263" y="172.294"/>
</g>
<g fill="rgb(0%, 0%, 0%)" fill-opacity="1">
<use xlink:href="#glyph-3-1" x="19.703473" y="172.294"/>
<use xlink:href="#glyph-3-2" x="23.675052" y="172.294"/>
</g>
<g fill="rgb(0%, 0%, 0%)" fill-opacity="1">
<use xlink:href="#glyph-1-2" x="27.646631" y="172.294"/>
</g>
<g fill="rgb(0%, 0%, 0%)" fill-opacity="1">
<use xlink:href="#glyph-3-2" x="30.012841" y="172.294"/>
<use xlink:href="#glyph-3-3" x="33.98442" y="172.294"/>
</g>
<g fill="rgb(0%, 0%, 0%)" fill-opacity="1">
<use xlink:href="#glyph-2-0" x="106.399" y="165.403"/>
</g>
<g fill="rgb(0%, 0%, 0%)" fill-opacity="1">
<use xlink:href="#glyph-3-0" x="93.482" y="172.294"/>
<use xlink:href="#glyph-3-1" x="96.595104" y="172.294"/>
<use xlink:href="#glyph-3-4" x="100.566683" y="172.294"/>
</g>
<g fill="rgb(0%, 0%, 0%)" fill-opacity="1">
<use xlink:href="#glyph-1-2" x="104.538263" y="172.294"/>
</g>
<g fill="rgb(0%, 0%, 0%)" fill-opacity="1">
<use xlink:href="#glyph-3-1" x="106.904473" y="172.294"/>
<use xlink:href="#glyph-3-2" x="110.876052" y="172.294"/>
</g>
<g fill="rgb(0%, 0%, 0%)" fill-opacity="1">
<use xlink:href="#glyph-1-2" x="114.847631" y="172.294"/>
</g>
<g fill="rgb(0%, 0%, 0%)" fill-opacity="1">
<use xlink:href="#glyph-3-2" x="117.213841" y="172.294"/>
<use xlink:href="#glyph-3-3" x="121.18542" y="172.294"/>
</g>
<g fill="rgb(0%, 0%, 0%)" fill-opacity="1">
<use xlink:href="#glyph-2-0" x="193.599" y="165.403"/>
</g>
<g fill="rgb(0%, 0%, 0%)" fill-opacity="1">
<use xlink:href="#glyph-3-0" x="182.668" y="172.294"/>
<use xlink:href="#glyph-3-1" x="185.781104" y="172.294"/>
<use xlink:href="#glyph-3-2" x="189.752683" y="172.294"/>
</g>
<g fill="rgb(0%, 0%, 0%)" fill-opacity="1">
<use xlink:href="#glyph-1-2" x="193.724263" y="172.294"/>
</g>
<g fill="rgb(0%, 0%, 0%)" fill-opacity="1">
<use xlink:href="#glyph-3-5" x="196.090473" y="172.294"/>
</g>
<g fill="rgb(0%, 0%, 0%)" fill-opacity="1">
<use xlink:href="#glyph-1-2" x="200.062052" y="172.294"/>
</g>
<g fill="rgb(0%, 0%, 0%)" fill-opacity="1">
<use xlink:href="#glyph-3-2" x="202.428262" y="172.294"/>
<use xlink:href="#glyph-3-3" x="206.399841" y="172.294"/>
</g>
<g fill="rgb(0%, 0%, 0%)" fill-opacity="1">
<use xlink:href="#glyph-2-0" x="276.829" y="165.403"/>
</g>
<g fill="rgb(0%, 0%, 0%)" fill-opacity="1">
<use xlink:href="#glyph-3-0" x="267.883" y="172.294"/>
<use xlink:href="#glyph-3-5" x="270.996104" y="172.294"/>
</g>
<g fill="rgb(0%, 0%, 0%)" fill-opacity="1">
<use xlink:href="#glyph-1-2" x="274.967683" y="172.294"/>
</g>
<g fill="rgb(0%, 0%, 0%)" fill-opacity="1">
<use xlink:href="#glyph-3-6" x="277.333894" y="172.294"/>
</g>
<g fill="rgb(0%, 0%, 0%)" fill-opacity="1">
<use xlink:href="#glyph-1-2" x="281.305473" y="172.294"/>
</g>
<g fill="rgb(0%, 0%, 0%)" fill-opacity="1">
<use xlink:href="#glyph-3-2" x="283.671683" y="172.294"/>
<use xlink:href="#glyph-3-3" x="287.643262" y="172.294"/>
</g>
<g clip-path="url(#clip-0)">
<path fill="none" stroke-width="2.32828" stroke-linecap="butt" stroke-linejoin="miter" stroke="rgb(0%, 0%, 0%)" stroke-opacity="1" stroke-miterlimit="10" d="M 67.466375 35.875062 L 116.57575 12.691469 " transform="matrix(1, 0, 0, -1, 148.518, 90.336)"/>
</g>
<path fill="none" stroke-width="1.5313" stroke-linecap="butt" stroke-linejoin="miter" stroke="rgb(100%, 100%, 100%)" stroke-opacity="1" stroke-miterlimit="10" d="M 67.466375 35.875062 L 116.57575 12.691469 " transform="matrix(1, 0, 0, -1, 148.518, 90.336)"/>
<path fill="none" stroke-width="0.39848" stroke-linecap="round" stroke-linejoin="round" stroke="rgb(0%, 0%, 0%)" stroke-opacity="1" stroke-miterlimit="10" d="M -1.294447 2.55804 C -0.664502 1.205248 1.021846 0.0487455 1.98706 -0.00104049 C 1.024874 -0.0491802 -0.66661 -1.206186 -1.294778 -2.556739 " transform="matrix(0.90427, 0.42686, 0.42686, -0.90427, 265.09423, 77.64305)"/>
<path fill="none" stroke-width="0.39848" stroke-linecap="butt" stroke-linejoin="miter" stroke="rgb(0%, 0%, 0%)" stroke-opacity="1" stroke-miterlimit="10" d="M -106.935969 5.976625 L -104.545344 5.976625 L -103.623469 6.734437 L -101.779719 5.218812 L -99.935969 6.734437 L -98.096125 5.218812 L -96.252375 6.734437 L -94.408625 5.218812 L -92.564875 6.734437 L -90.721125 5.218812 L -88.881281 6.734437 L -87.037531 5.218812 L -85.193781 6.734437 L -83.350031 5.218812 L -81.506281 6.734437 L -79.666438 5.218812 L -77.822688 6.734437 L -75.978938 5.218812 L -74.135188 6.734437 L -72.291438 5.218812 L -70.447688 6.734437 L -68.607844 5.218812 L -66.764094 6.734437 L -64.920344 5.218812 L -63.076594 6.734437 L -62.154719 5.976625 L -59.92425 5.976625 " transform="matrix(1, 0, 0, -1, 148.518, 90.336)"/>
<path fill="none" stroke-width="0.39848" stroke-linecap="round" stroke-linejoin="round" stroke="rgb(0%, 0%, 0%)" stroke-opacity="1" stroke-miterlimit="10" d="M -2.070944 2.38948 C -1.692037 0.955886 -0.848287 0.280105 -0.00063125 -0.001145 C -0.848287 -0.278489 -1.692037 -0.958176 -2.070944 -2.39177 " transform="matrix(1, 0, 0, -1, 88.7936, 84.35823)"/>
<path fill="none" stroke-width="0.39848" stroke-linecap="butt" stroke-linejoin="miter" stroke="rgb(0%, 0%, 0%)" stroke-opacity="1" stroke-miterlimit="10" d="M -26.79925 11.757875 L 27.314031 36.140687 " transform="matrix(1, 0, 0, -1, 148.518, 90.336)"/>
<path fill="none" stroke-width="0.39848" stroke-linecap="round" stroke-linejoin="round" stroke="rgb(0%, 0%, 0%)" stroke-opacity="1" stroke-miterlimit="10" d="M -2.072885 2.392378 C -1.691492 0.956558 -0.849307 0.277172 -0.000697491 0.00193627 C -0.851349 -0.278915 -1.692924 -0.958046 -2.072277 -2.389591 " transform="matrix(0.91168, -0.41077, -0.41077, -0.91168, 176.01315, 54.11476)"/>
<path fill="none" stroke-width="2.32828" stroke-linecap="butt" stroke-linejoin="miter" stroke="rgb(0%, 0%, 0%)" stroke-opacity="1" stroke-miterlimit="10" d="M -19.732844 -2.972594 L 32.743719 -26.621031 " transform="matrix(1, 0, 0, -1, 148.518, 90.336)"/>
<path fill="none" stroke-width="1.5313" stroke-linecap="butt" stroke-linejoin="miter" stroke="rgb(100%, 100%, 100%)" stroke-opacity="1" stroke-miterlimit="10" d="M -19.732844 -2.972594 L 32.743719 -26.621031 " transform="matrix(1, 0, 0, -1, 148.518, 90.336)"/>
<path fill="none" stroke-width="0.39848" stroke-linecap="round" stroke-linejoin="round" stroke="rgb(0%, 0%, 0%)" stroke-opacity="1" stroke-miterlimit="10" d="M -1.294395 2.556104 C -0.66517 1.207156 1.022523 0.0480549 1.987415 -0.00135715 C 1.022212 -0.046348 -0.666332 -1.205638 -1.292487 -2.554651 " transform="matrix(0.91168, 0.41078, 0.41078, -0.91168, 181.26289, 116.95581)"/>
<path fill="none" stroke-width="0.39848" stroke-linecap="butt" stroke-linejoin="miter" stroke="rgb(0%, 0%, 0%)" stroke-opacity="1" stroke-miterlimit="10" d="M 59.821844 -27.519469 L 114.517156 -1.703063 " transform="matrix(1, 0, 0, -1, 148.518, 90.336)"/>
<path fill="none" stroke-width="0.39848" stroke-linecap="round" stroke-linejoin="round" stroke="rgb(0%, 0%, 0%)" stroke-opacity="1" stroke-miterlimit="10" d="M -2.070455 2.389979 C -1.693649 0.955128 -0.850048 0.280528 -0.00142999 0.000967939 C -0.8513 -0.280434 -1.692253 -0.954811 -2.072064 -2.391102 " transform="matrix(0.9043, -0.42679, -0.42679, -0.9043, 263.21655, 91.95339)"/>
<path fill="none" stroke-width="0.39848" stroke-linecap="butt" stroke-linejoin="miter" stroke="rgb(0%, 0%, 0%)" stroke-opacity="1" stroke-miterlimit="10" d="M -106.935969 -72.578063 L -104.545344 -72.578063 L -103.623469 -71.82025 L -101.779719 -73.335875 L -99.935969 -71.82025 L -98.096125 -73.335875 L -96.252375 -71.82025 L -94.408625 -73.335875 L -92.564875 -71.82025 L -90.721125 -73.335875 L -88.881281 -71.82025 L -87.037531 -73.335875 L -85.193781 -71.82025 L -83.350031 -73.335875 L -81.506281 -71.82025 L -79.666438 -73.335875 L -77.822688 -71.82025 L -75.978938 -73.335875 L -74.135188 -71.82025 L -72.291438 -73.335875 L -70.447688 -71.82025 L -68.607844 -73.335875 L -66.764094 -71.82025 L -64.920344 -73.335875 L -63.076594 -71.82025 L -62.154719 -72.578063 L -59.92425 -72.578063 " transform="matrix(1, 0, 0, -1, 148.518, 90.336)"/>
<path fill="none" stroke-width="0.39848" stroke-linecap="round" stroke-linejoin="round" stroke="rgb(0%, 0%, 0%)" stroke-opacity="1" stroke-miterlimit="10" d="M -2.070944 2.389983 C -1.692037 0.956389 -0.848287 0.280608 -0.00063125 -0.0006425 C -0.848287 -0.277986 -1.692037 -0.957674 -2.070944 -2.391267 " transform="matrix(1, 0, 0, -1, 88.7936, 162.91342)"/>
<path fill="none" stroke-width="2.32828" stroke-linecap="butt" stroke-linejoin="miter" stroke="rgb(0%, 0%, 0%)" stroke-opacity="1" stroke-miterlimit="10" d="M -19.732844 -72.578063 L 27.474187 -72.578063 " transform="matrix(1, 0, 0, -1, 148.518, 90.336)"/>
<path fill="none" stroke-width="1.5313" stroke-linecap="butt" stroke-linejoin="miter" stroke="rgb(100%, 100%, 100%)" stroke-opacity="1" stroke-miterlimit="10" d="M -19.732844 -72.578063 L 27.474187 -72.578063 " transform="matrix(1, 0, 0, -1, 148.518, 90.336)"/>
<path fill="none" stroke-width="0.39848" stroke-linecap="round" stroke-linejoin="round" stroke="rgb(0%, 0%, 0%)" stroke-opacity="1" stroke-miterlimit="10" d="M -1.294291 2.557951 C -0.665385 1.206389 1.022115 0.0501388 1.986959 -0.0006425 C 1.022115 -0.0475175 -0.665385 -1.207674 -1.294291 -2.55533 " transform="matrix(1, 0, 0, -1, 175.99351, 162.91342)"/>
<path fill="none" stroke-width="2.32828" stroke-linecap="butt" stroke-linejoin="miter" stroke="rgb(0%, 0%, 0%)" stroke-opacity="1" stroke-miterlimit="10" d="M 65.482 -72.578063 L 112.692937 -72.578063 " transform="matrix(1, 0, 0, -1, 148.518, 90.336)"/>
<path fill="none" stroke-width="1.5313" stroke-linecap="butt" stroke-linejoin="miter" stroke="rgb(100%, 100%, 100%)" stroke-opacity="1" stroke-miterlimit="10" d="M 65.482 -72.578063 L 112.692937 -72.578063 " transform="matrix(1, 0, 0, -1, 148.518, 90.336)"/>
<path fill="none" stroke-width="0.39848" stroke-linecap="round" stroke-linejoin="round" stroke="rgb(0%, 0%, 0%)" stroke-opacity="1" stroke-miterlimit="10" d="M -1.291861 2.557951 C -0.666861 1.206389 1.024545 0.0501388 1.989389 -0.0006425 C 1.024545 -0.0475175 -0.666861 -1.207674 -1.291861 -2.55533 " transform="matrix(1, 0, 0, -1, 261.20983, 162.91342)"/>
</svg>
