<svg class="write-page" width="742.2px" height="346.2px" xmlns="http://www.w3.org/2000/svg" xmlns:xlink="http://www.w3.org/1999/xlink">
  <g class="write-content write-v3" width="742.2" height="346.2" xruling="0" yruling="0" marginLeft="0" papercolor="#000000" rulecolor="#FF0000FF">
    <g class="ruleline write-std-ruling write-scale-down" fill="none" stroke="#0000FF" stroke-width="1" shape-rendering="crispEdges" vector-effect="non-scaling-stroke">
      <rect class="pagerect" fill="#000000" stroke="none" x="0" y="0" width="742.2" height="346.2" />
    </g>
    <path class="write-stroke-pen" transform="translate(-146.4,-254.4)" fill="none" stroke="#B8B4AF" stroke-width="1.2" stroke-linecap="round" stroke-linejoin="round" __comx="213.6" __comy="67.9" __timestamp="0x1742377d17f" d="M360 270 l0 45 0 45 0 45 0 45 0 45 0 45 0 45" />
    <path class="write-stroke-pen" transform="translate(-146.4,-254.4)" fill="none" stroke="#B8B4AF" stroke-width="1.2" stroke-linecap="round" stroke-linejoin="round" __comx="371.1" __comy="240.4" __timestamp="0x1742377e577" d="M180 495 l45 0 45 0 45 0 45 0 45 0 45 0 45 0 45 0 45 0 45 0 45 0 45 0 45 0 45 0 45 0" />
  </g>
</svg>
