<svg role="img" viewBox="0 0 24 24" xmlns="http://www.w3.org/2000/svg"><title>GitHub Copilot</title><path fill="currentColor" d="M12 2c-4.6 0-9.205 2.417-11.547 4.242-.28.2-.453.53-.453.868v2.62c0 .345.113.679.321.956l.73.963c.392.517.974.654 1.593.654l.029.297c.25 2.446.81 4.213 2.082 5.52 2.461 2.54 5.71 2.851 7.146 2.864h.198c1.436-.013 4.685-.323 7.146-2.864 1.272-1.307 1.832-3.074 2.082-5.52l.029-.297c.619 0 1.201-.137 1.593-.654l.73-.963c.208-.277.321-.611.321-.956v-2.62c0-.339-.173-.669-.453-.868C21.205 4.417 16.6 2 12 2zm-4.365 3.087c.99-.088 1.875.058 2.265.394.36.292.6.979.63 1.813.03 1.037-.24 2.06-.675 2.47-.945.934-2.081 1.097-2.73 1.11h-.09c-.825 0-1.59-.263-1.995-.657-.555-.556-.765-3.187.21-4.224.45-.468 1.335-.804 2.385-.906zm8.73 0c1.05.102 1.935.438 2.385.906.975 1.037.765 3.668.21 4.224-.405.394-1.17.657-1.995.657h-.044c-.64-.006-1.808-.153-2.776-1.11-.435-.41-.705-1.433-.675-2.47.03-.834.27-1.521.63-1.813.39-.336 1.275-.482 2.265-.394zM12 7.615c.24 0 .525.015.84.044-.03.16-.045.336-.06.526l.001.159-.014.25c-.225-.022-.425-.027-.612-.028h-.366c-.187 0-.387.006-.612.028.015-.146.015-.277.015-.409-.015-.19-.03-.365-.06-.526.315-.029.6-.044.84-.044zm-2.525 3.726c.539 0 .976.426.976.95v1.753c0 .525-.437.95-.976.95a.964.964 0 01-.976-.95v-1.752c0-.525.437-.951.976-.951zm5 0c.539 0 .976.426.976.95v1.753c0 .525-.437.95-.976.95a.964.964 0 01-.976-.95v-1.752c0-.525.437-.951.976-.951zm-5.477 5.006c-.123.447-.305.85-.57 1.108-1.05 1.023-2.316 1.18-2.994 1.18-.638 0-1.306-.13-1.851-.464-.516.165-1.012.403-1.044.996a65.882 65.882 0 00-.063 2.884l-.002.48c-.002.563-.005 1.126-.013 1.69.002.326.204.63.51.765 2.482 1.102 4.83 1.657 6.99 1.657 2.156 0 4.504-.555 6.985-1.657a.854.854 0 00.51-.766c.03-1.682.006-3.372-.076-5.053-.031-.596-.528-.83-1.046-.996-.546.333-1.212.464-1.85.464-.677 0-1.942-.157-2.993-1.18-.266-.258-.447-.661-.57-1.108-.32-.032-.64-.049-.96-.05-.284 0-.613.016-.962.05z"/></svg>
